<?xml version="1.0" encoding="UTF-8" standalone="no"?>
<svg
   xmlns:dc="http://purl.org/dc/elements/1.1/"
   xmlns:cc="http://creativecommons.org/ns#"
   xmlns:rdf="http://www.w3.org/1999/02/22-rdf-syntax-ns#"
   xmlns:svg="http://www.w3.org/2000/svg"
   xmlns="http://www.w3.org/2000/svg"
   xmlns:sodipodi="http://sodipodi.sourceforge.net/DTD/sodipodi-0.dtd"
   xmlns:inkscape="http://www.inkscape.org/namespaces/inkscape"
   id="svg985"
   viewBox="0.090829528 0.52675537 59.004909 52.862159"
   height="52.86216"
   width="59.00491"
   version="1.1"
   sodipodi:docname="Beetle.svg"
   inkscape:version="0.92.2 5c3e80d, 2017-08-06">
  <sodipodi:namedview
     pagecolor="#ffffff"
     bordercolor="#666666"
     borderopacity="1"
     objecttolerance="10"
     gridtolerance="10"
     guidetolerance="10"
     inkscape:pageopacity="0"
     inkscape:pageshadow="2"
     inkscape:window-width="1440"
     inkscape:window-height="782"
     id="namedview31"
     showgrid="false"
     inkscape:zoom="3.123261"
     inkscape:cx="29.130667"
     inkscape:cy="26.431076"
     inkscape:window-x="0"
     inkscape:window-y="1"
     inkscape:window-maximized="1"
     inkscape:current-layer="svg985" />
  <metadata
     id="metadata991">
    <rdf:RDF>
      <cc:Work
         rdf:about="">
        <dc:format>image/svg+xml</dc:format>
        <dc:type
           rdf:resource="http://purl.org/dc/dcmitype/StillImage" />
        <dc:title />
      </cc:Work>
    </rdf:RDF>
  </metadata>
  <defs
     id="defs989" />
  <!-- Exported by Scratch - http://scratch.mit.edu/ -->
  <g
     transform="matrix(0.7,0,0,0.7,-0.46126574,0.14239033)"
     id="ID0.4356587138026953">
    <g
       id="Lime_Green_Leg">
      <path
         style="fill:#d4fc6a;stroke-width:0.69833726"
         d="m 4.3611,71.0654 c -0.9547,0 -1.8625,-0.3513 -2.4268,-0.94 -0.3009,-0.3135 -0.4595,-0.6564 -0.4469,-0.9665 0.3073,-2.5203 1.7284,-9.1656 2.7137,-9.6398 0.0343,-0.007 0.1055,-0.0133 0.1942,-0.0133 0.4881,0 1.4833,0.1963 2.6348,0.4239 1.7507,0.3471 3.924,0.7773 5.5497,0.7773 0.5126,0 0.9455,-0.044 1.2856,-0.1313 2.3178,-0.5929 6.0721,-3.4917 6.8004,-4.0671 0.6537,-0.4735 1.2214,-0.7096 1.72,-0.7096 1.211,0 1.521,1.4414 1.5238,1.4568 v 7e-4 c -0.1124,0.1941 -2.5259,4.2843 -6.9596,5.1195 -1.0727,0.2025 -2.3415,0.3059 -3.7717,0.3059 -2.4149,0 -4.7327,-0.2919 -5.8989,-0.4658 l -1.0356,-0.1544 0.2556,1.0154 c 0.8184,3.2536 1.1236,6.9687 -0.4728,7.6391 -0.5496,0.2326 -1.1104,0.3492 -1.6655,0.3492 z"
         id="ID0.014040753711014986"
         inkscape:connector-curvature="0" />
      <path
         style="stroke-width:0.69833726"
         fill="undefined"
         d="m 22.3865,56.4988 c 0.4177,0 0.6502,0.3938 0.7598,0.6606 -0.5901,0.889 -2.8024,3.8681 -6.3269,4.5315 -1.0293,0.1942 -2.2542,0.2933 -3.6418,0.2933 -2.3702,0 -4.6482,-0.287 -5.7948,-0.4581 l -2.0713,-0.3087 0.5112,2.0315 c 1.0154,4.0357 0.7353,6.4883 -0.0643,6.8242 -0.4658,0.1941 -0.935,0.2933 -1.3973,0.2933 -0.757,0 -1.4938,-0.2773 -1.9226,-0.7249 C 2.2591,69.4543 2.1976,69.3 2.1878,69.2134 2.4972,66.8691 3.6334,61.399 4.5042,60.2077 c 0.4693,0.0279 1.4051,0.2129 2.3953,0.4085 1.7759,0.3519 3.9868,0.7898 5.681,0.7898 0.5789,0 1.0559,-0.0496 1.4588,-0.1529 2.4344,-0.623 6.2515,-3.5588 7.0414,-4.181 0.53,-0.3799 0.9692,-0.5733 1.3058,-0.5733 m 0,-1.3967 c -0.6508,0 -1.3443,0.2738 -2.1466,0.8555 -0.0419,0.0328 -4.2159,3.3471 -6.5463,3.9428 -0.2835,0.0726 -0.6585,0.1089 -1.1131,0.1089 -1.5531,0 -3.6914,-0.4225 -5.4093,-0.7633 -1.2389,-0.2451 -2.2179,-0.4385 -2.7752,-0.4385 -0.1453,0 -0.2682,0.0126 -0.375,0.0384 -1.7731,0.4246 -3.227,10.1887 -3.2305,10.2844 -0.021,0.5014 0.2067,1.0266 0.6403,1.4784 0.6935,0.7228 1.7892,1.1543 2.9303,1.1543 0.6501,0 1.301,-0.1354 1.9365,-0.4015 2.4204,-1.0161 1.4874,-6.0378 0.8799,-8.4534 1.2989,0.1935 3.5936,0.4735 6.0008,0.4735 7e-4,0 7e-4,0 7e-4,0 1.4714,0 2.7835,-0.1062 3.9009,-0.3178 4.7522,-0.8945 7.3283,-5.2703 7.4359,-5.4568 l 0.1327,-0.229 -0.0538,-0.2605 c -0.1432,-0.6969 -0.7898,-2.0154 -2.2082,-2.0154 v 0 1.3967 0 z"
         id="ID0.06063009100034833"
         inkscape:connector-curvature="0" />
    </g>
    <path
       style="fill:#ff1557;stroke:#000000;stroke-width:1.39667451"
       d="m 39.2025,60.1965 c 0.2982,-0.808 0.5307,-3.403 0.5307,-3.403 l 5.4555,-1.8918 c 0,0 -1.0692,6.5616 -5.0302,8.9268 -3.9595,2.3674 -8.1796,3.1481 -8.1796,3.1481 0,0 6.2117,5.1607 3.3604,7.8466 -2.852,2.6872 -7.4087,-4.9876 -7.4024,-6.0421 0.0063,-1.0545 -0.2961,-2.9805 3.5134,-3.9428 3.8108,-0.9609 6.6614,-1.6872 7.7522,-4.6418 z"
       id="Pink_Leg"
       inkscape:connector-curvature="0" />
    <path
       style="fill:#59c9ee;stroke:#000000;stroke-width:1.39667451"
       d="m 59.4885,52.1321 h -2.9651 c 0,0 4.6795,4.5231 6.9359,7.5846 2.2535,3.0636 2.4616,8.628 2.8408,9.8214 0.3778,1.1935 5.396,3.0511 7.8437,3.9757 2.4477,0.9246 3.6474,-3.0741 2.2843,-4.8451 -1.3639,-1.7696 -7.5504,-2.5063 -7.5504,-2.5063 0,0 -1.3192,-4.5294 -3.4002,-8.4625 -2.0818,-3.9316 -5.989,-5.5678 -5.989,-5.5678 z"
       id="Light_Blue_Leg"
       inkscape:connector-curvature="0" />
    <path
       style="fill:#35abbf;stroke:#000000;stroke-width:1.39667451"
       d="m 20.6749,20.1126 c 0,0 -4.3059,-3.433 -6.8088,-4.0727 C 11.3633,15.3988 5.1369,17.3193 4.1837,17.0916 3.2319,16.8626 1.5335,8.5537 1.4881,7.4566 1.442,6.3603 3.5671,4.8665 6.0273,5.898 c 2.4595,1.0307 0.1899,8.674 0.1899,8.674 0,0 6.2439,-1.1823 10.7328,-0.3366 4.4917,0.8471 6.9603,5.1202 6.9603,5.1202"
       id="Blue_Leg_1_"
       inkscape:connector-curvature="0" />
    <path
       style="fill:#ffc300;stroke:#000000;stroke-width:1.39667451"
       d="m 39.2025,16.4205 c 0.2982,0.8073 0.5307,3.4016 0.5307,3.4016 l 5.4555,1.8918 c 0,0 -1.0692,-6.5616 -5.0302,-8.9282 C 36.199,10.4204 31.9789,9.639 31.9789,9.639 c 0,0 6.2117,-5.1594 3.3604,-7.8466 -2.852,-2.6872 -7.4087,4.9869 -7.4024,6.042 0.0063,1.0552 -0.2961,2.9813 3.5134,3.9429 3.8108,0.9623 6.6614,1.6878 7.7522,4.6432 z"
       id="Yellow_Leg"
       inkscape:connector-curvature="0" />
    <path
       style="fill:#80c34f;stroke:#000000;stroke-width:1.39667451"
       d="m 59.4885,24.4856 h -2.9651 c 0,0 4.6795,-4.5217 6.9359,-7.586 2.2535,-3.0636 2.4616,-8.628 2.8408,-9.8214 0.3778,-1.1935 5.396,-3.0511 7.8437,-3.9771 2.4484,-0.9246 3.6474,3.0755 2.2843,4.8458 -1.3639,1.7717 -7.5504,2.507 -7.5504,2.507 0,0 -1.3192,4.5308 -3.4002,8.4632 -2.0811,3.9323 -5.989,5.5685 -5.989,5.5685 z"
       id="Dark_Green_Leg_1_"
       inkscape:connector-curvature="0" />
    <path
       style="fill:#ff6d00;stroke:#000000;stroke-width:1.39667451"
       d="m 68.1779,28.1435 c 0,0 2.079,-5.3535 6.2152,-9.0498 2.6572,-2.3729 6.5825,-4.0301 7.1377,-4.1711 0.5538,-0.1404 -1.0258,-10.2048 -0.824,-9.9129 3.0482,4.3946 3.6306,11.9604 3.6306,11.9604 0,0 -4.19,0.8143 -9.1887,4.5979 -4.9987,3.7821 -4.8939,8.0609 -4.8939,8.0609 z"
       id="Top_Antenna"
       inkscape:connector-curvature="0" />
    <path
       style="fill:#ff6d00;stroke:#000000;stroke-width:1.39667451"
       d="m 68.1779,48.4735 c 0,0 2.079,5.3534 6.2152,9.0483 2.6572,2.3716 6.5825,4.0301 7.1377,4.1733 0.5538,0.1404 -1.0258,10.2027 -0.824,9.9122 3.0482,-4.396 3.6306,-11.9618 3.6306,-11.9618 0,0 -4.19,-0.8143 -9.1887,-4.5965 -4.9987,-3.7836 -4.8939,-8.0609 -4.8939,-8.0609 z"
       id="Bottom_Antenna"
       inkscape:connector-curvature="0" />
    <g
       id="Body">
      <path
         style="fill:#8761d4;stroke-width:0.69833726"
         d="M 51.0226,44.9448 C 49.2299,39.4195 44.984,38.967 44.8549,38.9559 H 3.7123 c 0.8771,11.6098 20.7804,20.7936 36.9393,16.3082 3.5321,-0.9783 6.917,-2.5754 10.1782,-3.3024 0.456,-1.2151 1.1949,-3.9338 0.1928,-7.0169 z"
         id="Wing_Fill_1_"
         inkscape:connector-curvature="0" />
      <path
         style="fill:#8761d4;stroke-width:0.69833726"
         d="m 3.7179,37.2533 h 41.1244 c 0,0 4.359,-0.3806 6.1803,-5.9889 0.9246,-2.8444 0.3666,-5.38 -0.0831,-6.7097 C 47.688,23.7768 44.2724,22.1413 40.6537,21.0589 24.6708,16.2766 4.7228,25.6805 3.7179,37.2533 Z"
         id="Wing_Fill"
         inkscape:connector-curvature="0" />
      <path
         style="fill:#ff6d00;stroke-width:0.69833726"
         d="m 72.1396,38.1618 c 0,-7.5427 -6.9799,-13.165 -17.8362,-13.165 -0.3241,0 -0.6502,-0.0189 -0.9756,-0.0461 0.2765,1.1774 0.5042,3.3981 -0.3918,6.6719 -1.0161,3.7194 -3.4316,5.5706 -5.3611,6.4813 1.9295,0.9106 4.345,2.7633 5.3611,6.4833 0.9127,3.3395 0.5922,5.746 0.2591,7.0169 0.2689,-0.0188 0.5363,-0.0286 0.8017,-0.0286 11.3103,0 18.1428,-5.8695 18.1428,-13.4137 z"
         id="Head_Fill"
         inkscape:connector-curvature="0" />
      <path
         style="fill:#231f20;stroke-width:0.69833726"
         d="m 55.5136,23.332 c -4.5595,0 -9.4087,-2.6607 -14.6595,-4.232 -17.6079,-5.2682 -39.7124,6.1999 -39.7124,19.066 0,12.8662 21.9662,23.9921 39.7138,19.0653 5.0336,-1.398 9.7969,-3.9623 14.332,-3.9623 12.1447,0 19.4801,-7.0037 19.4801,-15.103 0,-8.1 -7.496,-14.834 -19.154,-14.834 z m -2.3185,28.2721 c 0.3331,-1.2709 0.6536,-3.6774 -0.2591,-7.0169 -1.0161,-3.72 -3.4316,-5.572 -5.3611,-6.4833 1.9295,-0.9107 4.345,-2.7626 5.3611,-6.4813 0.8946,-3.2738 0.6683,-5.4945 0.3918,-6.6719 0.3268,0.0272 0.6529,0.0461 0.9756,0.0461 10.8563,0 17.8362,5.6223 17.8362,13.165 0,7.5442 -6.8325,13.4137 -18.1421,13.4137 -0.2668,0 -0.5335,0.0091 -0.8024,0.0286 z M 40.6523,21.0589 c 3.6201,1.0824 7.0343,2.7186 10.2865,3.4958 0.4504,1.3297 1.007,3.8653 0.0831,6.7097 -1.8206,5.6083 -6.181,5.9889 -6.181,5.9889 H 3.7179 C 4.7228,25.6805 24.6708,16.2766 40.6523,21.0589 Z m -7e-4,34.2052 C 24.492,59.7495 4.5894,50.5657 3.7123,38.9559 h 41.1426 c 0.1291,0.0125 4.375,0.4636 6.1677,5.9889 1.0035,3.0811 0.2632,5.8018 -0.1914,7.0148 -3.2626,0.7284 -6.6475,2.3255 -10.1796,3.3045 z"
         id="Outline"
         inkscape:connector-curvature="0" />
    </g>
    <g
       id="Eye">
      <g
         id="White_1_">
        <path
           style="fill:#ffffff;stroke-width:0.69833726"
           d="m 64.6583,36.9565 c -0.1306,0 -0.2598,-0.0091 -0.3883,-0.0286 C 63.506,36.814 62.7882,36.349 62.2993,35.652 61.8,34.9404 61.594,34.0836 61.7211,33.2386 c 0.2339,-1.5755 1.6097,-2.8108 3.1313,-2.8108 0.1299,0 0.2577,0.0097 0.3855,0.0286 0.7647,0.1145 1.4833,0.5803 1.9714,1.2779 0.4972,0.7117 0.7012,1.5678 0.5741,2.4121 -0.234,1.5755 -1.6076,2.8101 -3.1251,2.8101 z"
           id="ID0.4698791243135929"
           inkscape:connector-curvature="0" />
        <path
           style="stroke-width:0.69833726"
           fill="undefined"
           d="m 64.8524,31.1261 c 0.095,0 0.1893,0.007 0.2822,0.0209 1.1823,0.1767 2.1683,1.491 1.9588,2.8953 -0.1934,1.2934 -1.331,2.2159 -2.4351,2.2159 -0.0964,0 -0.1899,-0.007 -0.2842,-0.021 -1.1809,-0.176 -2.1726,-1.4895 -1.9624,-2.8953 0.1921,-1.2926 1.3388,-2.2158 2.4407,-2.2158 m 0,-1.3967 c -1.8596,0 -3.5391,1.4973 -3.8234,3.4079 -0.1529,1.0196 0.0957,2.0559 0.6984,2.9149 0.5978,0.8533 1.4881,1.4239 2.4393,1.5656 0.1599,0.0245 0.3254,0.0363 0.4902,0.0363 1.8534,0 3.5315,-1.4958 3.8164,-3.4057 0.1543,-1.0217 -0.0929,-2.0566 -0.6927,-2.9156 -0.5971,-0.8541 -1.4868,-1.426 -2.44,-1.5678 -0.1592,-0.023 -0.3227,-0.0356 -0.4882,-0.0356 v 0 1.3967 0 z"
           id="ID0.5066214520484209"
           inkscape:connector-curvature="0" />
      </g>
      <path
         style="stroke-width:0.69833726"
         fill="undefined"
         d="m 66.1674,32.4906 c 0.338,0 0.6439,0.146 0.8659,0.382 0.2214,0.2354 0.359,0.5608 0.359,0.9204 0,0.3597 -0.1376,0.6851 -0.359,0.9205 -0.222,0.236 -0.5279,0.3819 -0.8659,0.3819 -0.338,0 -0.6439,-0.1459 -0.8659,-0.3819 -0.2214,-0.2354 -0.359,-0.5608 -0.359,-0.9205 0,-0.3596 0.1376,-0.685 0.359,-0.9204 0.222,-0.236 0.5279,-0.382 0.8659,-0.382 z"
         id="Pupil_1_"
         inkscape:connector-curvature="0" />
    </g>
    <g
       id="Eye_1_">
      <g
         id="White">
        <path
           style="fill:#ffffff;stroke-width:0.69833726"
           d="m 64.7128,46.4427 c -0.1306,0 -0.2598,-0.0098 -0.3883,-0.0286 -0.764,-0.1145 -1.4826,-0.5796 -1.9707,-1.2766 -0.4993,-0.7123 -0.7053,-1.5684 -0.5782,-2.4127 0.2339,-1.5755 1.6096,-2.8108 3.1313,-2.8108 0.1299,0 0.2577,0.0104 0.3855,0.0286 0.7647,0.1145 1.4833,0.5796 1.9714,1.278 0.4965,0.7116 0.7011,1.567 0.574,2.4113 -0.2339,1.5762 -1.6075,2.8108 -3.125,2.8108 z"
           id="ID0.23315615905448794"
           inkscape:connector-curvature="0" />
        <path
           style="stroke-width:0.69833726"
           fill="undefined"
           d="m 64.9069,40.6116 c 0.095,0 0.1893,0.007 0.2821,0.0203 1.1823,0.1773 2.1684,1.4909 1.9589,2.8953 -0.1935,1.2947 -1.3311,2.2165 -2.4351,2.2165 -0.0964,0 -0.19,-0.007 -0.2843,-0.0203 -1.1808,-0.1773 -2.1725,-1.4909 -1.963,-2.8953 0.1928,-1.2926 1.3394,-2.2165 2.4414,-2.2165 m 0,-1.3967 c -1.8604,0 -3.5392,1.498 -3.8234,3.4086 -0.1529,1.0203 0.0957,2.0552 0.6977,2.9149 0.5977,0.854 1.4888,1.4239 2.4399,1.5656 0.16,0.0245 0.3255,0.0371 0.4903,0.0371 1.8534,0 3.5315,-1.4966 3.8164,-3.4058 0.1543,-1.0217 -0.0929,-2.0566 -0.6928,-2.9163 -0.597,-0.8541 -1.4874,-1.4253 -2.44,-1.5671 -0.1592,-0.0244 -0.3226,-0.037 -0.4881,-0.037 v 0 1.3967 0 z"
           id="ID0.6588016310706735"
           inkscape:connector-curvature="0" />
      </g>
      <path
         style="stroke-width:0.69833726"
         fill="undefined"
         d="m 66.2219,41.9762 c 0.338,0 0.6438,0.1459 0.8659,0.3819 0.2214,0.2354 0.359,0.5608 0.359,0.9205 0,0.3596 -0.1376,0.685 -0.359,0.9204 -0.2221,0.236 -0.5279,0.382 -0.8659,0.382 -0.338,0 -0.6439,-0.146 -0.866,-0.382 -0.2213,-0.2354 -0.3589,-0.5608 -0.3589,-0.9204 0,-0.3597 0.1376,-0.6851 0.3589,-0.9205 0.2221,-0.236 0.528,-0.3819 0.866,-0.3819 z"
         id="Pupil"
         inkscape:connector-curvature="0" />
    </g>
  </g>
</svg>
