<?xml version="1.0" encoding="UTF-8" standalone="no"?>
<svg
   xmlns:dc="http://purl.org/dc/elements/1.1/"
   xmlns:cc="http://creativecommons.org/ns#"
   xmlns:rdf="http://www.w3.org/1999/02/22-rdf-syntax-ns#"
   xmlns:svg="http://www.w3.org/2000/svg"
   xmlns="http://www.w3.org/2000/svg"
   xmlns:sodipodi="http://sodipodi.sourceforge.net/DTD/sodipodi-0.dtd"
   xmlns:inkscape="http://www.inkscape.org/namespaces/inkscape"
   id="svg28"
   viewBox="1.105124 1.2271252 66.616177 36.207272"
   height="36.207272"
   width="66.61618"
   version="1.1"
   sodipodi:docname="Cat2.svg"
   inkscape:version="0.92.2 5c3e80d, 2017-08-06">
  <sodipodi:namedview
     pagecolor="#ffffff"
     bordercolor="#666666"
     borderopacity="1"
     objecttolerance="10"
     gridtolerance="10"
     guidetolerance="10"
     inkscape:pageopacity="0"
     inkscape:pageshadow="2"
     inkscape:window-width="1440"
     inkscape:window-height="782"
     id="namedview31"
     showgrid="false"
     inkscape:zoom="2.9274612"
     inkscape:cx="33.302856"
     inkscape:cy="18.093044"
     inkscape:window-x="366"
     inkscape:window-y="205"
     inkscape:window-maximized="0"
     inkscape:current-layer="svg28" />
  <metadata
     id="metadata34">
    <rdf:RDF>
      <cc:Work
         rdf:about="">
        <dc:format>image/svg+xml</dc:format>
        <dc:type
           rdf:resource="http://purl.org/dc/dcmitype/StillImage" />
        <dc:title></dc:title>
      </cc:Work>
    </rdf:RDF>
  </metadata>
  <defs
     id="defs32" />
  <!-- Exported by Scratch - http://scratch.mit.edu/ -->
  <path
     style="fill:#e29339;stroke:#000000;stroke-width:0.76415682;stroke-linejoin:round"
     d="m 29.271729,32.453869 c -3.2699,-1.23705 -9.7025,-3.96665 -7.8611,-7.01 1.841,-3.0429 9.7731,4.34555 11.7635,5.05835 0,0 2.5838,-1.874 2.76925,0.0027 0.18585,1.8767 -2.27595,1.57785 -2.27595,1.57785 0,0 2.82625,0.18565 1.84555,1.9591 -0.98065,1.7735 -2.21775,0.35845 -2.5316,-0.21085 0,0 0.95065,1.7713 -0.36735,2.24965 -1.3184,0.47795 -2.07,-1.2889 -1.06315,-2.33685 0,0 -0.68605,-0.6873 -2.27915,-1.2899 v 0 0 0 0 z"
     id="Back_Leg2"
     inkscape:connector-curvature="0" />
  <path
     style="fill:#e29339;stroke:#000000;stroke-width:0.76415682;stroke-linejoin:round"
     d="m 29.448279,9.4182186 c -2.9621,1.6846004 -9.3782,3.4058004 -7.50155,6.4267004 1.8767,3.0206 9.44485,-3.78445 11.4264,-4.52115 0,0 2.60585,1.8433 2.7688,-0.03555 0.16335,-1.8788504 -2.29415,-1.5505004 -2.29415,-1.5505004 0,0 2.8242,-0.21815 1.82195,-1.98035 -1.0011,-1.7621 -2.2215,-0.33225 -2.52835,0.2404 0,0 0.92975,-1.78225 -0.3941,-2.2447 -1.32385,-0.46245 -2.0549,1.3128 -1.0352,2.34875 -4e-4,-4e-4 -1.0334,0.61605 -2.2638,1.3164 v 0 z"
     id="Back_Leg1"
     inkscape:connector-curvature="0" />
  <path
     style="fill:#e29339;stroke:#000000;stroke-width:0.76415682;stroke-linejoin:round"
     d="m 51.117279,5.3477186 c -2.9621,1.68465 -9.37855,3.4058 -7.50155,6.4267504 1.8767,3.0209 9.44445,-3.7845004 11.4264,-4.5211504 0,0 2.60545,1.8432 2.7684,-0.0356 0.16335,-1.87885 -2.29415,-1.5505 -2.29415,-1.5505 0,0 2.82425,-0.21815 1.822,-1.98035 -1.0011,-1.7621 -2.22195,-0.33225 -2.52875,0.2404 0,0 0.92975,-1.78225 -0.3941,-2.2447 -1.32385,-0.46245 -2.05455,1.31275 -1.03525,2.34875 4e-4,-4e-4 -1.033,0.616 -2.263,1.3164 v 0 z"
     id="Front_Leg2"
     inkscape:connector-curvature="0" />
  <path
     style="fill:#e29339;stroke:#000000;stroke-width:0.76415682;stroke-linejoin:round"
     d="m 53.341229,30.398969 c -3.1275,-1.35285 -8.36175,-5.444 -9.646,-2.1277 -1.28465,3.31625 8.70405,5.26915 10.48485,6.40915 0,0 0.09425,3.1904 1.69385,2.19045 1.5992,-0.9992 -0.1416,-2.7655 -0.1416,-2.7655 0,0 1.87295,2.1253 2.6783,0.26455 0.80535,-1.8596 -1.07105,-1.97505 -1.71295,-1.87535 0,0 1.98265,-0.3294 1.5562,-1.665 -0.4268,-1.33595 -2.28495,-0.85195 -2.4993,0.58565 -5e-5,3.5e-4 -1.1139,-0.45455 -2.41335,-1.01625 v 0 z"
     id="Front_Leg1"
     inkscape:connector-curvature="0" />
  <path
     style="fill:#e29339;stroke:#000000;stroke-width:0.76415682"
     d="m 51.977879,11.385719 c -3.15525,-2.1683004 -9.7343,0.47735 -13.8189,0.83155 -2.1401,0.18545 -5.53625,-2.1755 -9.38155,-1.8815 -5.67085,0.43285 -11.5193,3.3347 -11.47465,10.03245 0.04465,6.6974 5.3145,10.69735 12.517,11.0571 4.37385,0.2188 6.0296,-2.4744 8.48525,-2.6514 3.1948,-0.2302 7.79665,1.25315 12.00975,-0.92725 1.99655,-1.0332 4.5459,-5.22785 4.523,-8.79985 0.1267,-3.3618 -1.4232,-6.67365 -2.8599,-7.6611 v 0 z"
     id="Body"
     inkscape:connector-curvature="0" />
  <path
     style="fill:none;stroke:#000000;stroke-width:0.76415682;stroke-linecap:round"
     d="m 60.721329,9.4811686 1.6163,-4.0199"
     id="Whisker6"
     inkscape:connector-curvature="0" />
  <path
     style="fill:none;stroke:#000000;stroke-width:0.76415682;stroke-linecap:round"
     d="m 62.363879,10.313119 2.56685,-3.2082504"
     id="Whisker5"
     inkscape:connector-curvature="0" />
  <path
     style="fill:none;stroke:#000000;stroke-width:0.76415682;stroke-linecap:round"
     d="m 64.058929,11.488119 3.088049,-0.8976"
     id="Whisker4"
     inkscape:connector-curvature="0" />
  <path
     style="fill:none;stroke:#000000;stroke-width:0.76415682;stroke-linecap:round"
     d="m 61.469779,28.416219 1.9441,3.0678"
     id="Whisker3"
     inkscape:connector-curvature="0" />
  <path
     style="fill:none;stroke:#000000;stroke-width:0.76415682;stroke-linecap:round"
     d="m 63.052279,27.331469 3.0451,2.75795"
     id="Whisker2"
     inkscape:connector-curvature="0" />
  <path
     style="fill:none;stroke:#000000;stroke-width:0.76415682;stroke-linecap:round"
     d="m 64.141879,26.269069 3.191949,0.3933"
     id="Whisker1"
     inkscape:connector-curvature="0" />
  <path
     style="fill:#e29339;stroke:#000000;stroke-width:0.76415682;stroke-linejoin:round"
     d="m 49.046429,26.621969 c 0,0 8.7964,9.2709 12.42335,1.79425 0,0 3.62815,-0.1026 3.83275,-9.0717 0.17545,-7.6882 -1.4159,-8.08275 -3.67035,-9.22605 -0.01915,-0.0095 -0.0558,-0.03155 -0.0558,-0.03155 0,0 -2.271,-7.7440504 -13.04885,1.0051"
     id="Head"
     inkscape:connector-curvature="0" />
  <g
     transform="matrix(0.5,0,0,0.5,0.55272862,0.61156859)"
     id="L_Eye">
    <path
       style="fill:#ffffff;stroke:#000000;stroke-width:0.76415682"
       d="m 121.1305,47.0908 c 0.027,-0.7178 0.3432,-1.3567 0.8314,-1.8101 0.4888,-0.4526 1.1497,-0.7198 1.8675,-0.6928 0.7178,0.0271 1.3566,0.3433 1.81,0.8314 0.4527,0.4889 0.7199,1.1497 0.6928,1.8675 -0.027,0.7178 -0.3432,1.3567 -0.8314,1.8101 -0.4889,0.4526 -1.1497,0.7198 -1.8675,0.6928 -0.7178,-0.0271 -1.3566,-0.3433 -1.81,-0.8314 -0.4527,-0.4889 -0.7199,-1.1497 -0.6928,-1.8675 v 0 z"
       id="White"
       inkscape:connector-curvature="0" />
    <path
       style="stroke-width:0.76415682"
       fill="undefined"
       d="m 122.6307,46.5654 c 0.0169,-0.4475 0.2139,-0.8461 0.519,-1.1283 0.3043,-0.2829 0.7166,-0.4494 1.1641,-0.4325 0.4475,0.0168 0.8461,0.2139 1.1282,0.5189 0.283,0.3043 0.4494,0.7166 0.4326,1.1641 -0.0169,0.4475 -0.2139,0.8461 -0.519,1.1283 -0.3043,0.2829 -0.7166,0.4494 -1.1641,0.4325 -0.4475,-0.0169 -0.8461,-0.2139 -1.1282,-0.5189 -0.283,-0.3043 -0.4494,-0.7167 -0.4326,-1.1641 v 0 z"
       id="Pupil"
       inkscape:connector-curvature="0" />
  </g>
  <g
     transform="matrix(0.5,0,0,0.5,0.55272862,0.61156859)"
     id="R_Eye">
    <path
       style="fill:#ffffff;stroke:#000000;stroke-width:0.76415682"
       d="m 122.0249,26.564 c 0.0271,-0.7178 0.3433,-1.3566 0.8314,-1.8101 0.4889,-0.4526 1.1497,-0.7198 1.8675,-0.6927 0.7178,0.027 1.3567,0.3432 1.8101,0.8313 0.4526,0.4889 0.7198,1.1498 0.6928,1.8676 -0.0271,0.7177 -0.3433,1.3566 -0.8314,1.81 -0.4889,0.4526 -1.1497,0.7199 -1.8675,0.6928 -0.7178,-0.0271 -1.3567,-0.3432 -1.8101,-0.8314 -0.4526,-0.4889 -0.7198,-1.1497 -0.6928,-1.8675 v 0 z"
       id="White_1_"
       inkscape:connector-curvature="0" />
    <path
       style="stroke-width:0.76415682"
       fill="undefined"
       d="m 123.5252,26.0386 c 0.0169,-0.4475 0.2139,-0.8461 0.5189,-1.1282 0.3043,-0.283 0.7167,-0.4494 1.1641,-0.4326 0.4475,0.0169 0.8462,0.2139 1.1283,0.519 0.2829,0.3043 0.4494,0.7166 0.4325,1.1641 -0.0168,0.4474 -0.2139,0.8461 -0.5189,1.1282 -0.3043,0.283 -0.7166,0.4494 -1.1641,0.4326 -0.4475,-0.0169 -0.8461,-0.2139 -1.1283,-0.519 -0.2829,-0.3043 -0.4494,-0.7166 -0.4325,-1.1641 v 0 z"
       id="Pupil_1_"
       inkscape:connector-curvature="0" />
  </g>
  <path
     style="fill:#ec008c;stroke:#000000;stroke-width:0.65490901"
     d="m 64.808179,19.302219 c 0.01915,-0.50815 0.1283,-0.9648 0.2891,-1.2925 0.16085,-0.32815 0.3736,-0.5266 0.59955,-0.51805 0.2259,0.0085 0.42315,0.2224 0.5588,0.5617 0.1357,0.3389 0.21015,0.80245 0.191,1.3106 -0.01915,0.5082 -0.12825,0.9648 -0.2891,1.29255 -0.16085,0.3281 -0.3736,0.52655 -0.5995,0.51805 -0.22595,-0.0085 -0.42315,-0.2224 -0.55885,-0.5617 -0.1357,-0.3389 -0.21015,-0.80245 -0.191,-1.31065 z"
     id="Nose"
     inkscape:connector-curvature="0" />
  <g
     transform="matrix(0.5,0,0,0.5,0.55272862,0.61156859)"
     id="L_Ear">
    <path
       style="fill:#e29339;stroke:#000000;stroke-width:1.52831364;stroke-linecap:round;stroke-linejoin:round"
       d="m 101.2276,43.5219 c 0,0 -3.6227,7.4524 -5.28,9.9937 -1.6573,2.5421 -3.1997,3.293 -2.4457,4.3087 0.7532,1.0148 10.1936,-1.5054 13.0553,-1.0052"
       id="Outer_Ear"
       inkscape:connector-curvature="0" />
    <path
       style="fill:#58595b;stroke-width:0.76415682"
       d="m 96.8455,55.7862 c 0,0 6.5291,-1.5869 8.3833,-1.2165 -0.001,-0.0016 0.5496,0.0681 0.5496,0.0681 -0.7516,-1.6051 -2.4064,-5.2784 -2.9684,-7.4721 -1.7251,3.5704 -5.9645,8.6205 -5.9645,8.6205 v 0 0 z"
       id="Inner_Ear"
       inkscape:connector-curvature="0" />
  </g>
  <g
     transform="matrix(0.5,0,0,0.5,0.55272862,0.61156859)"
     id="R_Ear">
    <path
       style="fill:#e29339;stroke:#000000;stroke-width:1.52831364;stroke-linecap:round;stroke-linejoin:round"
       d="m 106.5514,18.0379 c -2.892,0.2825 -12.1152,-2.9404 -12.9426,-1.9859 -0.8283,0.956 0.6532,1.8217 2.1145,4.4813 1.4613,2.6581 4.5127,10.362 4.5127,10.362"
       id="Outer_Ear_1_"
       inkscape:connector-curvature="0" />
    <path
       style="fill:#58595b;stroke-width:0.76415682"
       d="m 96.7903,18.3353 c 0,0 6.3912,2.0738 8.268,1.844 -0.002,0.0023 0.5531,-0.0265 0.5531,-0.0265 -0.8703,1.544 -2.7968,5.0815 -3.5223,7.2275 -1.4523,-3.6902 -5.2988,-9.045 -5.2988,-9.045 v 0 0 z"
       id="Inner_Ear_1_"
       inkscape:connector-curvature="0" />
  </g>
  <path
     style="fill:#e29339;stroke:#000000;stroke-width:0.76415682"
     d="m 19.431479,21.489969 c -0.24525,1.07015 -1.3102,1.74155 -2.3824,1.5004 -3.62345,-0.8133 -6.43375,-0.4375 -8.3528504,1.11785 -3.1899,2.5849 -3.21765,7.79605 -3.21695,7.8473 0.01345,1.104 -0.86895,2.00635 -1.9718,2.0202 -1.1021,0.0139 -2.0063,-0.86935 -2.01985,-1.97145 -0.0036,-0.29145 -0.03155,-7.1668 4.6953,-10.99795 2.9154,-2.3624 6.8659504,-3.00535 11.7405504,-1.9105 1.07525,0.2413 1.75155,1.30945 1.51025,2.3847 -8.5e-4,0.003 -0.0014,0.0061 -0.0023,0.0095 v 0 0 0 0 0 z"
     id="Tail"
     inkscape:connector-curvature="0" />
</svg>
