<?xml version="1.0" encoding="UTF-8" standalone="no"?>
<!-- Generator: Adobe Illustrator 16.0.0, SVG Export Plug-In . SVG Version: 6.00 Build 0)  -->

<svg
   xmlns:dc="http://purl.org/dc/elements/1.1/"
   xmlns:cc="http://creativecommons.org/ns#"
   xmlns:rdf="http://www.w3.org/1999/02/22-rdf-syntax-ns#"
   xmlns:svg="http://www.w3.org/2000/svg"
   xmlns="http://www.w3.org/2000/svg"
   xmlns:sodipodi="http://sodipodi.sourceforge.net/DTD/sodipodi-0.dtd"
   xmlns:inkscape="http://www.inkscape.org/namespaces/inkscape"
   version="1.1"
   id="Logo_x5F_Final"
   x="0px"
   y="0px"
   width="100"
   height="75"
   viewBox="0 0 100 75"
   enable-background="new 0 0 640 480"
   xml:space="preserve"
   sodipodi:docname="Echidna.svg"
   inkscape:version="0.92.3 (2405546, 2018-03-11)"><metadata
   id="metadata33"><rdf:RDF><cc:Work
       rdf:about=""><dc:format>image/svg+xml</dc:format><dc:type
         rdf:resource="http://purl.org/dc/dcmitype/StillImage" /><dc:title></dc:title></cc:Work></rdf:RDF></metadata><defs
   id="defs31" /><sodipodi:namedview
   pagecolor="#ffffff"
   bordercolor="#666666"
   borderopacity="1"
   objecttolerance="10"
   gridtolerance="10"
   guidetolerance="10"
   inkscape:pageopacity="0"
   inkscape:pageshadow="2"
   inkscape:window-width="1280"
   inkscape:window-height="636"
   id="namedview29"
   showgrid="false"
   inkscape:zoom="11.125147"
   inkscape:cx="39.696733"
   inkscape:cy="67.500633"
   inkscape:window-x="0"
   inkscape:window-y="28"
   inkscape:window-maximized="1"
   inkscape:current-layer="Logo_x5F_Final" />
<g
   id="g26"
   transform="matrix(-0.15790939,0,0,0.15790939,100.58665,-0.8572868)">
	<g
   id="g24">
		<g
   id="g22">
			<g
   id="g14">
				<path
   d="m 69.204,200.364 c 0,0 11.815,0.283 26.504,4.221 14.449,3.874 21.26,6.115 33.968,10.293 26.94,8.9 42.39,15.341 59.298,29.268 12.708,10.467 80.95,56.1 80.95,56.1 0,0 42.151,32.512 65.217,33.208 0,0 4.461,0.413 -1.109,-6.986 0,0 -29.965,-31.249 -33.359,-90.851 -3.417,-59.624 -11.555,-97.706 -32.446,-114.417 0,0 -3.156,-3.112 -6.833,2.132 0,0 -26.396,25.482 -40.126,34.969 0,0 -13.949,11.642 -28.964,15.733 0,0 -13.774,6.158 -44.043,8.508 0,0 -53.684,0.914 -71.136,-1.654 0,0 -1.305,-0.174 -2.589,2.481 0,0 -6.549,11.577 -7.42,13.1 0,0 -2.088,3.068 -0.566,3.46 1.521,0.369 2.654,0.435 2.654,0.435 z"
   id="path2"
   inkscape:connector-curvature="0"
   style="clip-rule:evenodd;fill:#e66a00;fill-rule:evenodd" />
				<path
   d="m 294.296,132.383 c 0,0 -15.603,-27.375 4.722,-37.69 0,0 3.59,-1.219 4.222,5.397 0.631,6.615 -0.718,11.468 4.569,9.096 5.267,-2.394 2.959,-7.986 19.585,-16.561 0,0 8.248,-5.375 5.354,1.719 0,0 -7.986,13.971 0.675,8.444 0,0 9.901,-11.795 22.457,-15.93 0,0 4.656,-3.068 2.176,3.373 -2.48,6.441 -4.939,9.858 0.74,9.75 0,0 10.162,-7.595 17.104,-10.859 6.942,-3.264 13.1,-4.352 13.1,-4.352 0,0 -3.96,7.812 -5.723,11.446 -1.784,3.657 -3.612,5.223 0.501,4.44 4.091,-0.783 9.988,-12.708 20.389,-13.514 10.404,-0.783 5.224,2.416 1.677,6.572 -3.569,4.156 -6.921,6.312 -0.914,5.898 6.008,-0.392 10.512,-7.225 28.529,-9.75 0,0 5.723,-1.153 0,7.072 -5.702,8.226 -1.284,7.182 2.546,5.44 3.83,-1.74 24.916,-8.334 26.984,-8.465 2.045,-0.152 5.266,1.132 1.327,5.854 0,0 -7.117,7.138 5.526,4.374 0,0 11.577,-2.437 18.191,-2.677 6.616,-0.261 3.265,2.285 0,7.116 -3.264,4.809 -3.415,11.381 -0.761,9.553 14.95,-10.358 31.097,-5.766 31.097,-5.766 0,0 5.33,0 0.848,7.921 -4.461,7.942 0.392,6.528 4.092,5.614 3.742,-0.892 18.562,1.197 20.933,1.958 2.372,0.762 4.767,3.438 0,6.616 -4.766,3.199 -16.102,10.75 -4.786,10.51 11.314,-0.218 20.106,1.719 20.106,1.719 0,0 7.508,1.588 0.262,5.875 -7.246,4.309 -11.294,7.551 -1.981,6.92 0,0 16.3,1.893 18.322,6.114 2.024,4.222 -0.564,5.375 -4.308,6.463 -3.722,1.088 -12.882,2.329 -6.746,4.984 6.158,2.655 20.912,11.359 20.912,11.359 0,0 3.372,4.939 -3.046,5.027 -6.442,0.065 -14.668,-0.718 -6.508,6.071 0,0 1.654,0.413 4.94,2.111 3.285,1.719 9.227,6.919 9.227,6.919 0,0 5.637,4.048 -1.979,4.962 0,0 -11.208,0.326 -8.966,3.351 2.241,3.024 11.162,10.01 11.162,10.01 0,0 6.269,5.44 0.35,7.116 0,0 -13.253,-3.068 -4.418,8.422 8.856,11.489 9.314,12.815 9.314,12.815 0,0 1.153,4.244 -5.984,3.265 -7.16,-1.001 -8.596,-0.979 -6.007,3.961 2.567,4.939 4.374,11.381 4.483,13.382 0.108,2.003 1.045,8.422 -2.852,5.288 -3.896,-3.112 -10.424,-8.835 -9.9,-7.377 0.544,1.459 2.567,3.786 4.134,6.224 1.546,2.438 4.722,12.077 2.742,15.103 -1.979,3.002 -4.287,2.677 -7.921,0 -3.612,-2.676 -10.488,-6.05 -5.876,0.109 4.614,6.157 7.639,19.736 7.639,19.736 0,0 1.088,5.963 -5.179,2.155 -6.289,-3.832 -10.381,-7.334 -7.791,-0.959 2.59,6.377 2.525,15.713 1.828,17.365 -0.675,1.654 -1.697,6.268 -5.614,0 -3.917,-6.267 -4.7,-7.941 -8.922,-4.111 0,0 -55.882,46.851 -180.289,12.49 0,0 -6.637,-1.307 -26.81,-29.355 0,0 -18.801,-29.921 -26.068,-62.628 -7.292,-32.683 -1.655,-79.73 -23.416,-117.485 z"
   id="path4"
   inkscape:connector-curvature="0"
   style="clip-rule:evenodd;fill:#e66a00;fill-rule:evenodd" />
				<path
   d="m 420.488,355.954 12.556,0.717 c 0,0 3.568,0.544 2.677,4.026 -0.894,3.482 -0.806,10.968 0.805,15.45 1.61,4.504 4.744,18.301 -6.637,18.976 0,0 -29.161,-3.83 -35.755,-2.654 -6.594,1.195 -4.831,-4.245 -1.871,-6.029 2.959,-1.783 6.854,-3.241 12.577,-4.352 5.726,-1.109 15.518,-1.109 16.322,-11.969 0.827,-10.901 -5.766,-13.361 -0.674,-14.165 z"
   id="path6"
   inkscape:connector-curvature="0"
   style="clip-rule:evenodd;fill:#e66a00;fill-rule:evenodd" />
				<path
   d="m 381.513,349.426 8.684,1.958 c 0,0 3.328,-0.261 3.307,8.661 -0.043,8.921 -0.652,19.932 -3.896,20.803 -3.242,0.871 -10.162,-0.675 -16.167,-0.695 -6.007,-0.023 -19.804,0.804 -22.153,0.173 -2.349,-0.631 -6.224,-2.721 -1.871,-6.136 4.352,-3.416 11.882,-2.786 15.885,-3.178 4.026,-0.392 11.185,-0.304 13.731,-7.355 2.588,-7.073 0.412,-13.47 2.48,-14.231 z"
   id="path8"
   inkscape:connector-curvature="0"
   style="clip-rule:evenodd;fill:#e66a00;fill-rule:evenodd" />
				<path
   d="m 526.768,347.205 c 0.174,-0.151 14.449,-6.614 14.449,-6.614 0,0 2.263,-0.806 2.132,2.654 -0.108,3.461 0.196,10.771 3.178,15.732 2.98,4.983 4.656,7.138 4.656,7.138 0,0 10.271,10.749 -1.545,16.43 0,0 -7.442,2.285 -14.384,3.655 -6.941,1.394 -16.277,4.636 -17.714,5.44 -1.436,0.806 -7.702,5.397 -4.352,-3.198 3.372,-8.617 10.14,-14.536 21.5,-22.435 0,0 5.744,-4.985 -0.262,-11.578 10e-4,0.001 -9.857,-5.396 -7.658,-7.224 z"
   id="path10"
   inkscape:connector-curvature="0"
   style="clip-rule:evenodd;fill:#e66a00;fill-rule:evenodd" />
				<path
   d="m 495.301,354.43 10.424,-1.74 c 0,0 2.285,-1.894 4.068,5.94 0,0 1.067,8.377 3.679,12.729 0,0 3.917,10.185 -7.442,12.209 -11.359,2.024 -31.074,5.874 -31.074,5.874 0,0 -7.225,-2.153 -2.09,-5.396 5.115,-3.265 3.33,-2.241 12.883,-6.201 9.553,-3.961 9.771,-7.923 10.097,-10.794 0.327,-2.895 -0.087,-7.596 -0.087,-7.596 0,0 -1.785,-3.872 -0.458,-5.025 z"
   id="path12"
   inkscape:connector-curvature="0"
   style="clip-rule:evenodd;fill:#e66a00;fill-rule:evenodd" />
			</g>
			<path
   d="m 230.689,191.963 c 1.045,5.354 -7.007,11.925 -14.993,13.144 -10.054,1.544 -14.993,-4.178 -14.993,-9.64 0,-5.462 7.029,-11.337 15.081,-11.86 7.398,-0.456 13.252,0.001 14.905,8.356 z"
   id="path16"
   inkscape:connector-curvature="0"
   style="clip-rule:evenodd;fill:#ffffff;fill-rule:evenodd" />
			<path
   d="m 63.109,172.814 c 2.634,0.892 5.941,1.676 8.074,3.569 2.741,2.416 1.022,6.637 -0.153,9.4 -1.414,3.373 -3.308,6.964 -5.897,9.575 -3.199,3.243 -4.765,4.461 -9.292,3.33 -3.112,-0.783 -7.421,-2.002 -9.423,-4.722 -1.849,-2.546 0.11,-6.137 1.328,-8.508 3.156,-6.181 8.64,-10.946 15.363,-12.644 1.263,0.414 -1.13,0.284 0,0"
   id="path18"
   inkscape:connector-curvature="0"
   style="clip-rule:evenodd;fill-rule:evenodd" />
			<path
   d="m 214.847,199.667 c -6.659,0.021 -6.984,-10.141 -0.413,-10.163 6.659,-0.043 6.963,10.141 0.413,10.163 -3.111,0 2.829,0 0,0"
   id="path20"
   inkscape:connector-curvature="0"
   style="clip-rule:evenodd;fill-rule:evenodd" />
		</g>
	</g>
</g>
</svg>